<svg width="72" height="72" viewBox="0 0 72 72" fill="none" xmlns="http://www.w3.org/2000/svg">
<rect width="72" height="72" rx="36" fill="url(#paint0_linear_154_24)"/>
<path d="M14.1631 56.9445L17.2499 45.7354C15.3415 42.4453 14.3404 38.7193 14.3508 34.9102C14.3508 22.9746 24.1118 13.2704 36.094 13.2704C41.913 13.2704 47.3775 15.5226 51.4758 19.6118C55.5846 23.7011 57.8476 29.1396 57.8371 34.9206C57.8371 46.8563 48.0762 56.5605 36.0835 56.5605H36.0731C32.4336 56.5605 28.8567 55.6471 25.676 53.9243L14.1631 56.9445ZM26.2287 50.0114L26.8857 50.4058C29.6597 52.0457 32.8403 52.9071 36.0835 52.9175H36.094C46.0531 52.9175 54.1664 44.8532 54.1664 34.931C54.1664 30.1256 52.2892 25.6108 48.8792 22.2066C45.4691 18.8023 40.9223 16.9341 36.094 16.9341C26.1349 16.9237 18.0216 24.9881 18.0216 34.9102C18.0216 38.3041 18.9706 41.615 20.7851 44.4795L21.2127 45.1645L19.3877 51.7966L26.2287 50.0114Z" fill="white"/>
<path d="M14.9243 56.1868L17.9068 45.3617C16.061 42.1962 15.0912 38.5947 15.0912 34.9206C15.1016 23.4001 24.5184 14.028 36.0939 14.028C41.7148 14.028 46.9812 16.2076 50.9439 20.1515C54.9067 24.0955 57.0863 29.3472 57.0863 34.931C57.0863 46.4515 47.659 55.8236 36.0939 55.8236H36.0835C32.5691 55.8236 29.1173 54.9414 26.0514 53.2807L14.9243 56.1868Z" fill="url(#paint1_linear_154_24)"/>
<path d="M14.1631 56.9445L17.2499 45.7354C15.3415 42.4453 14.3404 38.7193 14.3508 34.9102C14.3508 22.9746 24.1118 13.2704 36.094 13.2704C41.913 13.2704 47.3775 15.5226 51.4758 19.6118C55.5846 23.7011 57.8476 29.1396 57.8371 34.9206C57.8371 46.8563 48.0762 56.5605 36.0835 56.5605H36.0731C32.4336 56.5605 28.8567 55.6471 25.676 53.9243L14.1631 56.9445ZM26.2287 50.0114L26.8857 50.4058C29.6597 52.0457 32.8403 52.9071 36.0835 52.9175H36.094C46.0531 52.9175 54.1664 44.8532 54.1664 34.931C54.1664 30.1256 52.2892 25.6108 48.8792 22.2066C45.4691 18.8023 40.9223 16.9341 36.094 16.9341C26.1349 16.9237 18.0216 24.9881 18.0216 34.9102C18.0216 38.3041 18.9706 41.615 20.7851 44.4795L21.2127 45.1645L19.3877 51.7966L26.2287 50.0114Z" fill="url(#paint2_linear_154_24)"/>
<path fill-rule="evenodd" clip-rule="evenodd" d="M30.6605 25.8599C30.2538 24.9569 29.8262 24.9362 29.4404 24.9258C29.1275 24.9154 28.7626 24.9154 28.3976 24.9154C28.0326 24.9154 27.4486 25.0503 26.948 25.59C26.4475 26.1297 25.05 27.4375 25.05 30.1048C25.05 32.7618 27.0002 35.3357 27.2713 35.699C27.5424 36.0623 31.0359 41.698 36.5526 43.8671C41.141 45.6731 42.0796 45.3098 43.0703 45.2164C44.061 45.123 46.2822 43.9087 46.7411 42.6424C47.1895 41.3762 47.1895 40.2968 47.0539 40.0685C46.9184 39.8402 46.5534 39.7052 46.0111 39.4354C45.4688 39.1655 42.7992 37.8578 42.2986 37.671C41.798 37.4945 41.433 37.4011 41.0785 37.9408C40.7135 38.4805 39.6706 39.6949 39.3578 40.0581C39.0449 40.4214 38.7217 40.4629 38.1794 40.193C37.6371 39.9232 35.8851 39.3524 33.8099 37.5049C32.1935 36.0726 31.0985 34.2979 30.7857 33.7582C30.4728 33.2185 30.7544 32.9279 31.0255 32.658C31.2654 32.4193 31.5678 32.0249 31.8389 31.7135C32.1101 31.4022 32.2039 31.1738 32.3812 30.8106C32.5585 30.4473 32.4751 30.136 32.3395 29.8661C32.2039 29.6066 31.1402 26.9289 30.6605 25.8599Z" fill="white"/>
<defs>
<linearGradient id="paint0_linear_154_24" x1="35.9981" y1="71.9964" x2="35.9981" y2="-0.00251909" gradientUnits="userSpaceOnUse">
<stop stop-color="#20B038"/>
<stop offset="1" stop-color="#60D66A"/>
</linearGradient>
<linearGradient id="paint1_linear_154_24" x1="36.0042" y1="56.1847" x2="36.0042" y2="14.0265" gradientUnits="userSpaceOnUse">
<stop stop-color="#20B038"/>
<stop offset="1" stop-color="#60D66A"/>
</linearGradient>
<linearGradient id="paint2_linear_154_24" x1="36.0044" y1="56.9404" x2="36.0044" y2="13.2704" gradientUnits="userSpaceOnUse">
<stop stop-color="#F9F9F9"/>
<stop offset="1" stop-color="white"/>
</linearGradient>
</defs>
</svg>
