<svg width="35" height="35" viewBox="0 0 35 35" fill="none" xmlns="http://www.w3.org/2000/svg">
<path d="M8.44656 28.4135C8.44656 28.4135 6.82256 28.3989 6.38587 28.434C5.70977 28.4559 5.15959 28.2354 4.65441 27.7302C4.60584 27.6816 4.55402 27.6298 4.50868 27.578C3.6083 26.5548 3.0894 25.2862 2.739 24.2959C1.79159 21.5775 1.43928 18.7109 1.69508 15.7803C1.91905 13.3477 2.40876 11.3813 3.23831 9.57382C3.74185 8.46796 4.2587 7.7309 4.89868 7.18807C5.30917 6.84234 5.76837 6.67459 6.30539 6.67514L8.51167 6.6774C8.81901 6.68742 9.0682 6.77502 9.23335 6.94017C9.43737 7.14419 9.47972 7.43215 9.47993 7.63919C9.47994 7.64566 9.47994 7.65213 9.47995 7.6586C9.49328 8.04034 9.49043 8.41884 9.48437 8.81998C9.48135 9.02378 9.48156 9.23082 9.47854 9.44109L9.48034 11.2074C9.48105 11.8932 9.16434 12.21 8.47851 12.2093C8.29088 12.2091 8.10649 12.2121 7.92209 12.2087C7.37214 12.2146 7.79908 12.215 7.26527 12.1854C7.25233 12.1854 7.24262 12.1821 7.23292 12.1853C6.67649 12.1848 6.45684 12.508 6.33092 12.7505C6.32447 12.7635 6.31801 12.7764 6.31155 12.7893C5.98562 13.5751 5.78592 14.4225 5.65442 15.5384L5.65443 15.5449C5.44942 17.5375 5.53538 19.3362 5.91884 21.0318C5.96759 21.2486 6.03573 21.4524 6.10063 21.6466C6.15904 21.8214 6.2142 21.9864 6.24995 22.1385C6.25644 22.1579 6.25969 22.1806 6.26618 22.2C6.32135 22.365 6.39912 22.4945 6.50599 22.6014C6.77477 22.8701 7.11121 22.8705 7.2212 22.8706L8.48942 22.8719C8.7094 22.8721 9.01677 22.9145 9.22079 23.1185C9.42156 23.3193 9.46068 23.6105 9.45119 23.8207C9.4512 23.8272 9.4512 23.8272 9.4512 23.8337L9.45485 27.3987C9.45876 28.0619 8.44656 28.4135 8.44656 28.4135Z" stroke="black" stroke-width="2" stroke-linecap="round" stroke-linejoin="round"/>
<path d="M12.5672 20.3125H17.6297L19.3172 22.2812H26.0672L27.7547 20.3125H32.8172M15.0984 28.75C13.7005 28.75 12.5672 27.4908 12.5672 25.9375V9.0625C12.5672 7.5092 13.7005 6.25 15.0984 6.25H30.2859C31.6839 6.25 32.8172 7.5092 32.8172 9.0625V25.9375C32.8172 27.4908 31.6839 28.75 30.2859 28.75H15.0984Z" stroke="black" stroke-width="2" stroke-linecap="round" stroke-linejoin="round"/>
</svg>
