<svg width="88" height="88" viewBox="0 0 88 88" fill="none" xmlns="http://www.w3.org/2000/svg">
<g filter="url(#filter0_d_154_24)">
<rect x="8" y="8" width="72" height="72" rx="36" fill="url(#paint0_linear_154_24)"/>
<path d="M22.1631 64.9445L25.2499 53.7354C23.3415 50.4453 22.3404 46.7193 22.3508 42.9102C22.3508 30.9746 32.1118 21.2704 44.094 21.2704C49.913 21.2704 55.3775 23.5226 59.4758 27.6118C63.5846 31.7011 65.8476 37.1396 65.8371 42.9206C65.8371 54.8563 56.0762 64.5605 44.0835 64.5605H44.0731C40.4336 64.5605 36.8567 63.6471 33.676 61.9243L22.1631 64.9445ZM34.2287 58.0114L34.8857 58.4058C37.6597 60.0457 40.8403 60.9071 44.0835 60.9175H44.094C54.0531 60.9175 62.1664 52.8532 62.1664 42.931C62.1664 38.1256 60.2892 33.6108 56.8792 30.2066C53.4691 26.8023 48.9223 24.9341 44.094 24.9341C34.1349 24.9237 26.0216 32.9881 26.0216 42.9102C26.0216 46.3041 26.9706 49.615 28.7851 52.4795L29.2127 53.1645L27.3877 59.7966L34.2287 58.0114Z" fill="white"/>
<path d="M22.9243 64.1868L25.9068 53.3617C24.061 50.1962 23.0912 46.5947 23.0912 42.9206C23.1016 31.4001 32.5184 22.028 44.0939 22.028C49.7148 22.028 54.9812 24.2076 58.9439 28.1515C62.9067 32.0955 65.0863 37.3472 65.0863 42.931C65.0863 54.4515 55.659 63.8236 44.0939 63.8236H44.0835C40.5691 63.8236 37.1173 62.9414 34.0514 61.2807L22.9243 64.1868Z" fill="url(#paint1_linear_154_24)"/>
<path d="M22.1631 64.9445L25.2499 53.7354C23.3415 50.4453 22.3404 46.7193 22.3508 42.9102C22.3508 30.9746 32.1118 21.2704 44.094 21.2704C49.913 21.2704 55.3775 23.5226 59.4758 27.6118C63.5846 31.7011 65.8476 37.1396 65.8371 42.9206C65.8371 54.8563 56.0762 64.5605 44.0835 64.5605H44.0731C40.4336 64.5605 36.8567 63.6471 33.676 61.9243L22.1631 64.9445ZM34.2287 58.0114L34.8857 58.4058C37.6597 60.0457 40.8403 60.9071 44.0835 60.9175H44.094C54.0531 60.9175 62.1664 52.8532 62.1664 42.931C62.1664 38.1256 60.2892 33.6108 56.8792 30.2066C53.4691 26.8023 48.9223 24.9341 44.094 24.9341C34.1349 24.9237 26.0216 32.9881 26.0216 42.9102C26.0216 46.3041 26.9706 49.615 28.7851 52.4795L29.2127 53.1645L27.3877 59.7966L34.2287 58.0114Z" fill="url(#paint2_linear_154_24)"/>
<path fill-rule="evenodd" clip-rule="evenodd" d="M38.6605 33.8599C38.2538 32.9569 37.8262 32.9362 37.4404 32.9258C37.1275 32.9154 36.7626 32.9154 36.3976 32.9154C36.0326 32.9154 35.4486 33.0503 34.948 33.59C34.4475 34.1297 33.05 35.4375 33.05 38.1048C33.05 40.7618 35.0002 43.3357 35.2713 43.699C35.5424 44.0623 39.0359 49.698 44.5526 51.8671C49.141 53.6731 50.0796 53.3098 51.0703 53.2164C52.061 53.123 54.2822 51.9087 54.7411 50.6424C55.1895 49.3762 55.1895 48.2968 55.0539 48.0685C54.9184 47.8402 54.5534 47.7052 54.0111 47.4354C53.4688 47.1655 50.7992 45.8578 50.2986 45.671C49.798 45.4945 49.433 45.4011 49.0785 45.9408C48.7135 46.4805 47.6706 47.6949 47.3578 48.0581C47.0449 48.4214 46.7217 48.4629 46.1794 48.193C45.6371 47.9232 43.8851 47.3524 41.8099 45.5049C40.1935 44.0726 39.0985 42.2979 38.7857 41.7582C38.4728 41.2185 38.7544 40.9279 39.0255 40.658C39.2654 40.4193 39.5678 40.0249 39.8389 39.7135C40.1101 39.4022 40.2039 39.1738 40.3812 38.8106C40.5585 38.4473 40.4751 38.136 40.3395 37.8661C40.2039 37.6066 39.1402 34.9289 38.6605 33.8599Z" fill="white"/>
</g>
<defs>
<filter id="filter0_d_154_24" x="0" y="0" width="88" height="88" filterUnits="userSpaceOnUse" color-interpolation-filters="sRGB">
<feFlood flood-opacity="0" result="BackgroundImageFix"/>
<feColorMatrix in="SourceAlpha" type="matrix" values="0 0 0 0 0 0 0 0 0 0 0 0 0 0 0 0 0 0 127 0" result="hardAlpha"/>
<feOffset/>
<feGaussianBlur stdDeviation="4"/>
<feComposite in2="hardAlpha" operator="out"/>
<feColorMatrix type="matrix" values="0 0 0 0 0 0 0 0 0 0 0 0 0 0 0 0 0 0 0.25 0"/>
<feBlend mode="normal" in2="BackgroundImageFix" result="effect1_dropShadow_154_24"/>
<feBlend mode="normal" in="SourceGraphic" in2="effect1_dropShadow_154_24" result="shape"/>
</filter>
<linearGradient id="paint0_linear_154_24" x1="43.9981" y1="79.9964" x2="43.9981" y2="7.99748" gradientUnits="userSpaceOnUse">
<stop stop-color="#20B038"/>
<stop offset="1" stop-color="#60D66A"/>
</linearGradient>
<linearGradient id="paint1_linear_154_24" x1="44.0042" y1="64.1847" x2="44.0042" y2="22.0265" gradientUnits="userSpaceOnUse">
<stop stop-color="#20B038"/>
<stop offset="1" stop-color="#60D66A"/>
</linearGradient>
<linearGradient id="paint2_linear_154_24" x1="44.0044" y1="64.9404" x2="44.0044" y2="21.2704" gradientUnits="userSpaceOnUse">
<stop stop-color="#F9F9F9"/>
<stop offset="1" stop-color="white"/>
</linearGradient>
</defs>
</svg>
