<svg width="80" height="80" viewBox="0 0 80 80" fill="none" xmlns="http://www.w3.org/2000/svg">
<g filter="url(#filter0_d_39_1331)">
<rect x="1" width="72" height="72" rx="36" fill="url(#paint0_linear_39_1331)"/>
<path d="M15.1629 56.9445L18.2497 45.7354C16.3413 42.4453 15.3402 38.7193 15.3506 34.9102C15.3506 22.9746 25.1116 13.2704 37.0938 13.2704C42.9128 13.2704 48.3773 15.5226 52.4757 19.6118C56.5844 23.7011 58.8474 29.1396 58.837 34.9206C58.837 46.8563 49.076 56.5605 37.0834 56.5605H37.0729C33.4334 56.5605 29.8565 55.6471 26.6758 53.9243L15.1629 56.9445ZM27.2285 50.0114L27.8855 50.4058C30.6595 52.0457 33.8401 52.9071 37.0834 52.9175H37.0938C47.0529 52.9175 55.1662 44.8532 55.1662 34.931C55.1662 30.1256 53.2891 25.6108 49.879 22.2066C46.4689 18.8023 41.9221 16.9341 37.0938 16.9341C27.1347 16.9237 19.0214 24.9881 19.0214 34.9102C19.0214 38.3041 19.9704 41.615 21.7849 44.4795L22.2125 45.1645L20.3875 51.7966L27.2285 50.0114Z" fill="white"/>
<path d="M15.9243 56.1868L18.9068 45.3617C17.0609 42.1962 16.0911 38.5947 16.0911 34.9206C16.1015 23.4001 25.5184 14.028 37.0939 14.028C42.7148 14.028 47.9811 16.2076 51.9439 20.1515C55.9067 24.0955 58.0862 29.3472 58.0862 34.931C58.0862 46.4515 48.6589 55.8236 37.0939 55.8236H37.0834C33.5691 55.8236 30.1173 54.9414 27.0513 53.2807L15.9243 56.1868Z" fill="url(#paint1_linear_39_1331)"/>
<path d="M15.1629 56.9445L18.2497 45.7354C16.3413 42.4453 15.3402 38.7193 15.3506 34.9102C15.3506 22.9746 25.1116 13.2704 37.0938 13.2704C42.9128 13.2704 48.3773 15.5226 52.4757 19.6118C56.5844 23.7011 58.8474 29.1396 58.837 34.9206C58.837 46.8563 49.076 56.5605 37.0834 56.5605H37.0729C33.4334 56.5605 29.8565 55.6471 26.6758 53.9243L15.1629 56.9445ZM27.2285 50.0114L27.8855 50.4058C30.6595 52.0457 33.8401 52.9071 37.0834 52.9175H37.0938C47.0529 52.9175 55.1662 44.8532 55.1662 34.931C55.1662 30.1256 53.2891 25.6108 49.879 22.2066C46.4689 18.8023 41.9221 16.9341 37.0938 16.9341C27.1347 16.9237 19.0214 24.9881 19.0214 34.9102C19.0214 38.3041 19.9704 41.615 21.7849 44.4795L22.2125 45.1645L20.3875 51.7966L27.2285 50.0114Z" fill="url(#paint2_linear_39_1331)"/>
<path fill-rule="evenodd" clip-rule="evenodd" d="M31.6605 25.8599C31.2537 24.9569 30.8262 24.9362 30.4403 24.9258C30.1275 24.9154 29.7625 24.9154 29.3975 24.9154C29.0325 24.9154 28.4485 25.0503 27.948 25.59C27.4474 26.1297 26.05 27.4375 26.05 30.1048C26.05 32.7618 28.0001 35.3357 28.2712 35.699C28.5424 36.0623 32.0359 41.698 37.5525 43.8671C42.141 45.6731 43.0795 45.3098 44.0702 45.2164C45.0609 45.123 47.2822 43.9087 47.741 42.6424C48.1894 41.3762 48.1894 40.2968 48.0539 40.0685C47.9183 39.8402 47.5533 39.7052 47.011 39.4354C46.4688 39.1655 43.7991 37.8578 43.2985 37.671C42.798 37.4945 42.433 37.4011 42.0784 37.9408C41.7134 38.4805 40.6706 39.6949 40.3577 40.0581C40.0449 40.4214 39.7216 40.4629 39.1793 40.193C38.637 39.9232 36.8851 39.3524 34.8098 37.5049C33.1934 36.0726 32.0984 34.2979 31.7856 33.7582C31.4727 33.2185 31.7543 32.9279 32.0254 32.658C32.2653 32.4193 32.5677 32.0249 32.8389 31.7135C33.11 31.4022 33.2039 31.1738 33.3811 30.8106C33.5584 30.4473 33.475 30.136 33.3394 29.8661C33.2039 29.6066 32.1402 26.9289 31.6605 25.8599Z" fill="white"/>
</g>
<defs>
<filter id="filter0_d_39_1331" x="0" y="0" width="80" height="80" filterUnits="userSpaceOnUse" color-interpolation-filters="sRGB">
<feFlood flood-opacity="0" result="BackgroundImageFix"/>
<feColorMatrix in="SourceAlpha" type="matrix" values="0 0 0 0 0 0 0 0 0 0 0 0 0 0 0 0 0 0 127 0" result="hardAlpha"/>
<feOffset dx="3" dy="4"/>
<feGaussianBlur stdDeviation="2"/>
<feComposite in2="hardAlpha" operator="out"/>
<feColorMatrix type="matrix" values="0 0 0 0 0 0 0 0 0 0 0 0 0 0 0 0 0 0 0.25 0"/>
<feBlend mode="normal" in2="BackgroundImageFix" result="effect1_dropShadow_39_1331"/>
<feBlend mode="normal" in="SourceGraphic" in2="effect1_dropShadow_39_1331" result="shape"/>
</filter>
<linearGradient id="paint0_linear_39_1331" x1="36.9981" y1="71.9964" x2="36.9981" y2="-0.00251909" gradientUnits="userSpaceOnUse">
<stop stop-color="#20B038"/>
<stop offset="1" stop-color="#60D66A"/>
</linearGradient>
<linearGradient id="paint1_linear_39_1331" x1="37.0041" y1="56.1847" x2="37.0041" y2="14.0265" gradientUnits="userSpaceOnUse">
<stop stop-color="#20B038"/>
<stop offset="1" stop-color="#60D66A"/>
</linearGradient>
<linearGradient id="paint2_linear_39_1331" x1="37.0042" y1="56.9404" x2="37.0042" y2="13.2704" gradientUnits="userSpaceOnUse">
<stop stop-color="#F9F9F9"/>
<stop offset="1" stop-color="white"/>
</linearGradient>
</defs>
</svg>
