<svg width="255" height="86" viewBox="0 0 255 86" fill="none" xmlns="http://www.w3.org/2000/svg">
<path d="M1.66406 20.886V31.6897H111.863V1.61914H16.6095L1.66406 20.886Z" fill="#F7682B" stroke="white" stroke-width="2"/>
<path d="M113.019 84.3641H2.09473L17.6167 54.3057H113.019V84.3641Z" fill="#F7682B" stroke="white" stroke-width="2"/>
<path d="M137.623 13.1254V21.7898L153.87 31.6895H253.982V1.61914H153.87L137.623 13.1254Z" fill="#F7682B" stroke="white" stroke-width="2"/>
<path d="M153.726 54.5732L136.671 69.5566L153.726 84.4188H253.982V54.5732H153.726Z" fill="#F7682B" stroke="white" stroke-width="2"/>
<path d="M30.1009 22.6543V11.0179H34.5554C35.3963 11.0179 36.0952 11.1505 36.652 11.4157C37.2126 11.677 37.6312 12.035 37.9077 12.4895C38.188 12.9441 38.3281 13.4592 38.3281 14.035C38.3281 14.5085 38.2372 14.9138 38.0554 15.2509C37.8736 15.5842 37.6293 15.8551 37.3224 16.0634C37.0156 16.2717 36.6728 16.4213 36.294 16.5123V16.6259C36.7069 16.6486 37.1027 16.7755 37.4815 17.0066C37.8641 17.2338 38.1766 17.5558 38.419 17.9725C38.6615 18.3891 38.7827 18.8929 38.7827 19.4838C38.7827 20.0861 38.6368 20.6278 38.3452 21.1088C38.0535 21.5861 37.6141 21.963 37.027 22.2395C36.4399 22.516 35.7012 22.6543 34.8111 22.6543H30.1009ZM32.2088 20.8929H34.4759C35.241 20.8929 35.7921 20.7471 36.1293 20.4554C36.4702 20.16 36.6406 19.7812 36.6406 19.3191C36.6406 18.9744 36.5554 18.6638 36.3849 18.3873C36.2145 18.1069 35.9721 17.8873 35.6577 17.7282C35.3433 17.5653 34.9683 17.4838 34.5327 17.4838H32.2088V20.8929ZM32.2088 15.9668H34.294C34.6577 15.9668 34.9853 15.9005 35.277 15.7679C35.5687 15.6316 35.7978 15.4403 35.9645 15.1941C36.1349 14.9441 36.2202 14.6486 36.2202 14.3077C36.2202 13.8569 36.0611 13.4857 35.7429 13.1941C35.4285 12.9024 34.9607 12.7566 34.3395 12.7566H32.2088V15.9668ZM40.6165 22.6543V11.0179H48.1847V12.785H42.7244V15.9441H47.7926V17.7111H42.7244V20.8873H48.2301V22.6543H40.6165ZM51.892 11.0179L54.9205 20.177H55.0398L58.0625 11.0179H60.3807L56.2784 22.6543H53.6761L49.5795 11.0179H51.892ZM61.9134 22.6543V11.0179H69.4815V12.785H64.0213V15.9441H69.0895V17.7111H64.0213V20.8873H69.527V22.6543H61.9134ZM71.6321 22.6543V11.0179H73.7401V20.8873H78.8651V22.6543H71.6321ZM83.8679 11.0179H86.2486L89.0952 16.1657H89.2088L92.0554 11.0179H94.4361L90.2031 18.3134V22.6543H88.1009V18.3134L83.8679 11.0179Z" fill="white"/>
<path d="M30.4446 75.335V63.6986H34.8991C35.7401 63.6986 36.4389 63.8312 36.9957 64.0963C37.5563 64.3577 37.9749 64.7156 38.2514 65.1702C38.5317 65.6247 38.6719 66.1399 38.6719 66.7156C38.6719 67.1891 38.581 67.5944 38.3991 67.9316C38.2173 68.2649 37.973 68.5357 37.6662 68.7441C37.3594 68.9524 37.0166 69.102 36.6378 69.1929V69.3066C37.0507 69.3293 37.4465 69.4562 37.8253 69.6872C38.2079 69.9145 38.5204 70.2365 38.7628 70.6531C39.0052 71.0698 39.1264 71.5736 39.1264 72.1645C39.1264 72.7668 38.9806 73.3084 38.6889 73.7895C38.3973 74.2668 37.9579 74.6437 37.3707 74.9202C36.7836 75.1967 36.045 75.335 35.1548 75.335H30.4446ZM32.5526 73.5736H34.8196C35.5848 73.5736 36.1359 73.4278 36.473 73.1361C36.8139 72.8406 36.9844 72.4619 36.9844 71.9997C36.9844 71.655 36.8991 71.3444 36.7287 71.0679C36.5582 70.7876 36.3158 70.5679 36.0014 70.4088C35.687 70.2459 35.312 70.1645 34.8764 70.1645H32.5526V73.5736ZM32.5526 68.6475H34.6378C35.0014 68.6475 35.3291 68.5812 35.6207 68.4486C35.9124 68.3122 36.1416 68.1209 36.3082 67.8747C36.4787 67.6247 36.5639 67.3293 36.5639 66.9884C36.5639 66.5376 36.4048 66.1664 36.0866 65.8747C35.7723 65.5831 35.3045 65.4372 34.6832 65.4372H32.5526V68.6475ZM40.9602 75.335V63.6986H48.5284V65.4656H43.0682V68.6247H48.1364V70.3918H43.0682V73.5679H48.5739V75.335H40.9602ZM52.2358 63.6986L55.2642 72.8577H55.3835L58.4062 63.6986H60.7244L56.6222 75.335H54.0199L49.9233 63.6986H52.2358ZM62.2571 75.335V63.6986H69.8253V65.4656H64.3651V68.6247H69.4332V70.3918H64.3651V73.5679H69.8707V75.335H62.2571ZM71.9759 75.335V63.6986H74.0838V73.5679H79.2088V75.335H71.9759ZM86.5639 63.6986L89.5923 72.8577H89.7116L92.7344 63.6986H95.0526L90.9503 75.335H88.348L84.2514 63.6986H86.5639Z" fill="white"/>
<path d="M170.159 22.1543V10.5179H174.614C175.455 10.5179 176.154 10.6505 176.711 10.9157C177.271 11.177 177.69 11.535 177.966 11.9895C178.247 12.4441 178.387 12.9592 178.387 13.535C178.387 14.0085 178.296 14.4138 178.114 14.7509C177.932 15.0842 177.688 15.3551 177.381 15.5634C177.074 15.7717 176.731 15.9213 176.353 16.0123V16.1259C176.766 16.1486 177.161 16.2755 177.54 16.5066C177.923 16.7338 178.235 17.0558 178.478 17.4725C178.72 17.8891 178.841 18.3929 178.841 18.9838C178.841 19.5861 178.695 20.1278 178.404 20.6088C178.112 21.0861 177.673 21.463 177.086 21.7395C176.498 22.016 175.76 22.1543 174.87 22.1543H170.159ZM172.267 20.3929H174.534C175.3 20.3929 175.851 20.2471 176.188 19.9554C176.529 19.66 176.699 19.2812 176.699 18.8191C176.699 18.4744 176.614 18.1638 176.444 17.8873C176.273 17.6069 176.031 17.3873 175.716 17.2282C175.402 17.0653 175.027 16.9838 174.591 16.9838H172.267V20.3929ZM172.267 15.4668H174.353C174.716 15.4668 175.044 15.4005 175.336 15.2679C175.627 15.1316 175.856 14.9403 176.023 14.6941C176.194 14.4441 176.279 14.1486 176.279 13.8077C176.279 13.3569 176.12 12.9857 175.801 12.6941C175.487 12.4024 175.019 12.2566 174.398 12.2566H172.267V15.4668ZM180.675 22.1543V10.5179H188.243V12.285H182.783V15.4441H187.851V17.2111H182.783V20.3873H188.289V22.1543H180.675ZM191.951 10.5179L194.979 19.677H195.098L198.121 10.5179H200.439L196.337 22.1543H193.735L189.638 10.5179H191.951ZM201.972 22.1543V10.5179H209.54V12.285H204.08V15.4441H209.148V17.2111H204.08V20.3873H209.586V22.1543H201.972ZM211.691 22.1543V10.5179H213.799V20.3873H218.924V22.1543H211.691ZM224.722 22.1543V10.5179H226.83V15.8645H226.972L231.512 10.5179H234.086L229.586 15.7395L234.125 22.1543H231.591L228.12 17.1657L226.83 18.6884V22.1543H224.722Z" fill="white"/>
<path d="M169.855 75.335V63.6986H174.309C175.15 63.6986 175.849 63.8312 176.406 64.0963C176.967 64.3577 177.385 64.7156 177.662 65.1702C177.942 65.6247 178.082 66.1399 178.082 66.7156C178.082 67.1891 177.991 67.5944 177.809 67.9316C177.627 68.2649 177.383 68.5357 177.076 68.7441C176.77 68.9524 176.427 69.102 176.048 69.1929V69.3066C176.461 69.3293 176.857 69.4562 177.235 69.6872C177.618 69.9145 177.931 70.2365 178.173 70.6531C178.415 71.0698 178.537 71.5736 178.537 72.1645C178.537 72.7668 178.391 73.3084 178.099 73.7895C177.807 74.2668 177.368 74.6437 176.781 74.9202C176.194 75.1967 175.455 75.335 174.565 75.335H169.855ZM171.963 73.5736H174.23C174.995 73.5736 175.546 73.4278 175.883 73.1361C176.224 72.8406 176.395 72.4619 176.395 71.9997C176.395 71.655 176.309 71.3444 176.139 71.0679C175.968 70.7876 175.726 70.5679 175.412 70.4088C175.097 70.2459 174.722 70.1645 174.287 70.1645H171.963V73.5736ZM171.963 68.6475H174.048C174.412 68.6475 174.739 68.5812 175.031 68.4486C175.323 68.3122 175.552 68.1209 175.718 67.8747C175.889 67.6247 175.974 67.3293 175.974 66.9884C175.974 66.5376 175.815 66.1664 175.497 65.8747C175.182 65.5831 174.715 65.4372 174.093 65.4372H171.963V68.6475ZM180.37 75.335V63.6986H187.939V65.4656H182.478V68.6247H187.547V70.3918H182.478V73.5679H187.984V75.335H180.37ZM191.646 63.6986L194.674 72.8577H194.794L197.816 63.6986H200.135L196.032 75.335H193.43L189.333 63.6986H191.646ZM201.667 75.335V63.6986H209.235V65.4656H203.775V68.6247H208.843V70.3918H203.775V73.5679H209.281V75.335H201.667ZM211.386 75.335V63.6986H213.494V73.5679H218.619V75.335H211.386ZM226.179 63.6986L228.741 67.96H228.832L231.406 63.6986H233.809L230.224 69.5168L233.866 75.335H231.423L228.832 71.102H228.741L226.15 75.335H223.718L227.395 69.5168L223.764 63.6986H226.179Z" fill="white"/>
</svg>
